<svg width="11" height="11" viewBox="0 0 11 11" fill="none" xmlns="http://www.w3.org/2000/svg">
<path d="M10.1368 4.51904L6.07434 0.456538C5.92198 0.304279 5.7154 0.21875 5.50001 0.21875C5.28461 0.21875 5.07803 0.304279 4.92567 0.456538L0.863169 4.51904C0.787355 4.59429 0.727257 4.68386 0.686371 4.78255C0.645484 4.88123 0.624625 4.98706 0.625005 5.09388V9.96888C0.625005 10.0766 0.667806 10.18 0.743993 10.2561C0.82018 10.3323 0.923511 10.3751 1.03126 10.3751H4.28126C4.389 10.3751 4.49233 10.3323 4.56852 10.2561C4.6447 10.18 4.68751 10.0766 4.68751 9.96888V7.12513H6.31251V9.96888C6.31251 10.0766 6.35531 10.18 6.43149 10.2561C6.50768 10.3323 6.61101 10.3751 6.71876 10.3751H9.96876C10.0765 10.3751 10.1798 10.3323 10.256 10.2561C10.3322 10.18 10.375 10.0766 10.375 9.96888V5.09388C10.3754 4.98706 10.3545 4.88123 10.3136 4.78255C10.2728 4.68386 10.2127 4.59429 10.1368 4.51904ZM9.56251 9.56263H7.12501V6.71888C7.12501 6.61114 7.0822 6.50781 7.00602 6.43162C6.92983 6.35543 6.8265 6.31263 6.71876 6.31263H4.28126C4.17351 6.31263 4.07018 6.35543 3.99399 6.43162C3.91781 6.50781 3.87501 6.61114 3.87501 6.71888V9.56263H1.43751V5.09388L5.50001 1.03138L9.56251 5.09388V9.56263Z" fill="white"/>
</svg>
