<svg width="19" height="9" viewBox="0 0 19 9" fill="none" xmlns="http://www.w3.org/2000/svg">
<path d="M17.9945 3.02032C17.762 2.84138 17.4913 2.71848 17.2035 2.66116C16.9157 2.60385 16.6185 2.61366 16.3352 2.68985L13.0664 3.44141C13.1425 3.12016 13.1448 2.78586 13.0733 2.46356C13.0017 2.14127 12.8582 1.83935 12.6534 1.58042C12.4486 1.3215 12.1878 1.11229 11.8907 0.968475C11.5935 0.824661 11.2676 0.749972 10.9375 0.750008H7.02656C6.69812 0.749185 6.37278 0.813453 6.06932 0.939099C5.76587 1.06475 5.49032 1.24928 5.25859 1.48204L3.49141 3.25001H1.25C0.918479 3.25001 0.600537 3.3817 0.366117 3.61612C0.131696 3.85054 0 4.16849 0 4.50001L0 7.62501C0 7.95653 0.131696 8.27447 0.366117 8.50889C0.600537 8.74331 0.918479 8.87501 1.25 8.87501H9.375C9.4261 8.87503 9.47701 8.86873 9.52656 8.85626L14.5266 7.60626C14.5587 7.59855 14.59 7.5881 14.6203 7.57501L17.6562 6.28282L17.6906 6.26719C17.9825 6.12136 18.2324 5.90363 18.4168 5.63451C18.6013 5.36539 18.7142 5.05374 18.7449 4.72893C18.7756 4.40412 18.7231 4.07684 18.5924 3.77792C18.4617 3.479 18.257 3.21828 17.9977 3.02032H17.9945ZM3.125 7.62501H1.25V4.50001H3.125V7.62501ZM17.143 5.14141L14.1742 6.40548L9.29688 7.62501H4.375V4.1336L6.14297 2.36641C6.25862 2.24984 6.39629 2.15741 6.54798 2.09451C6.69967 2.03161 6.86235 1.99948 7.02656 2.00001H10.9375C11.1861 2.00001 11.4246 2.09878 11.6004 2.2746C11.7762 2.45041 11.875 2.68887 11.875 2.93751C11.875 3.18615 11.7762 3.4246 11.6004 3.60042C11.4246 3.77624 11.1861 3.87501 10.9375 3.87501H8.75C8.58424 3.87501 8.42527 3.94086 8.30806 4.05807C8.19085 4.17528 8.125 4.33425 8.125 4.50001C8.125 4.66577 8.19085 4.82474 8.30806 4.94195C8.42527 5.05916 8.58424 5.12501 8.75 5.12501H11.25C11.297 5.12487 11.3439 5.11964 11.3898 5.10938L16.6242 3.90548L16.6484 3.89923C16.8082 3.85487 16.9788 3.87117 17.1273 3.94499C17.2758 4.01882 17.3917 4.14495 17.4528 4.29912C17.5139 4.45329 17.5158 4.62461 17.4582 4.78011C17.4005 4.9356 17.2874 5.06429 17.1406 5.14141H17.143Z" fill="white"/>
</svg>
