<svg width="18" height="14" viewBox="0 0 18 14" fill="none" xmlns="http://www.w3.org/2000/svg">
<path d="M15.875 0.125H2.125C1.79348 0.125 1.47554 0.256696 1.24112 0.491116C1.0067 0.725537 0.875 1.04348 0.875 1.375V12.625C0.875 12.9565 1.0067 13.2745 1.24112 13.5089C1.47554 13.7433 1.79348 13.875 2.125 13.875H15.875C16.2065 13.875 16.5245 13.7433 16.7589 13.5089C16.9933 13.2745 17.125 12.9565 17.125 12.625V1.375C17.125 1.04348 16.9933 0.725537 16.7589 0.491116C16.5245 0.256696 16.2065 0.125 15.875 0.125ZM15.875 6.375H12.125V1.375H15.875V6.375ZM2.125 1.375H10.875V12.625H2.125V1.375ZM15.875 12.625H12.125V7.625H15.875V12.625ZM13.0625 3.875C13.0625 3.68958 13.1175 3.50832 13.2205 3.35415C13.3235 3.19998 13.4699 3.07982 13.6412 3.00886C13.8125 2.93791 14.001 2.91934 14.1829 2.95551C14.3648 2.99169 14.5318 3.08098 14.6629 3.21209C14.794 3.3432 14.8833 3.51025 14.9195 3.6921C14.9557 3.87396 14.9371 4.06246 14.8661 4.23377C14.7952 4.40507 14.675 4.55149 14.5208 4.6545C14.3667 4.75752 14.1854 4.8125 14 4.8125C13.7514 4.8125 13.5129 4.71373 13.3371 4.53791C13.1613 4.3621 13.0625 4.12364 13.0625 3.875ZM14.9375 10.125C14.9375 10.3104 14.8825 10.4917 14.7795 10.6458C14.6765 10.8 14.5301 10.9202 14.3588 10.9911C14.1875 11.0621 13.999 11.0807 13.8171 11.0445C13.6352 11.0083 13.4682 10.919 13.3371 10.7879C13.206 10.6568 13.1167 10.4898 13.0805 10.3079C13.0443 10.126 13.0629 9.93754 13.1339 9.76624C13.2048 9.59493 13.325 9.44851 13.4792 9.3455C13.6333 9.24248 13.8146 9.1875 14 9.1875C14.2486 9.1875 14.4871 9.28627 14.6629 9.46209C14.8387 9.6379 14.9375 9.87636 14.9375 10.125ZM9.60547 9.96875C9.40322 9.2136 8.92366 8.56247 8.2625 8.14531C8.61362 7.79628 8.8532 7.35085 8.95087 6.86549C9.04854 6.38013 8.9999 5.8767 8.81112 5.41902C8.62234 4.96134 8.30192 4.57001 7.89047 4.29465C7.47903 4.01929 6.99509 3.87229 6.5 3.87229C6.00491 3.87229 5.52097 4.01929 5.10953 4.29465C4.69808 4.57001 4.37766 4.96134 4.18888 5.41902C4.0001 5.8767 3.95146 6.38013 4.04913 6.86549C4.1468 7.35085 4.38638 7.79628 4.7375 8.14531C4.07676 8.56293 3.59734 9.21387 3.39453 9.96875C3.35309 10.1293 3.37714 10.2998 3.46138 10.4426C3.54563 10.5855 3.68317 10.689 3.84375 10.7305C4.00433 10.7719 4.1748 10.7479 4.31765 10.6636C4.4605 10.5794 4.56403 10.4418 4.60547 10.2812C4.81172 9.48047 5.62578 8.875 6.5 8.875C7.37422 8.875 8.18906 9.47891 8.39453 10.2812C8.43597 10.4418 8.5395 10.5794 8.68235 10.6636C8.8252 10.7479 8.99567 10.7719 9.15625 10.7305C9.31683 10.689 9.45437 10.5855 9.53862 10.4426C9.62286 10.2998 9.64691 10.1293 9.60547 9.96875ZM5.25 6.375C5.25 6.12777 5.32331 5.8861 5.46066 5.68054C5.59801 5.47498 5.79324 5.31476 6.02165 5.22015C6.25005 5.12554 6.50139 5.10079 6.74386 5.14902C6.98634 5.19725 7.20907 5.3163 7.38388 5.49112C7.5587 5.66593 7.67775 5.88866 7.72598 6.13114C7.77421 6.37361 7.74946 6.62495 7.65485 6.85335C7.56024 7.08176 7.40002 7.27699 7.19446 7.41434C6.9889 7.55169 6.74723 7.625 6.5 7.625C6.16848 7.625 5.85054 7.4933 5.61612 7.25888C5.3817 7.02446 5.25 6.70652 5.25 6.375Z" fill="white"/>
</svg>
