<svg width="11" height="10" viewBox="0 0 11 10" fill="none" xmlns="http://www.w3.org/2000/svg">
<path d="M6.1499 1.69879L6.53573 1.31212C6.84294 1.0048 7.25965 0.832109 7.69419 0.832031C8.12872 0.831953 8.54549 1.0045 8.85281 1.31171C9.16013 1.61892 9.33283 2.03563 9.33291 2.47016C9.33298 2.9047 9.16044 3.32147 8.85323 3.62879L8.4674 4.01546M6.1499 1.69879C6.1499 1.69879 6.19823 2.51879 6.9224 3.24296C7.64656 3.96712 8.4674 4.01546 8.4674 4.01546M6.1499 1.69879L2.5999 5.24879C2.35823 5.48879 2.23823 5.60962 2.1349 5.74212C2.01323 5.89879 1.90906 6.06712 1.82323 6.24712C1.75073 6.39879 1.6974 6.55962 1.5899 6.88212L1.24573 7.91546L1.13406 8.24962M8.4674 4.01546L4.9174 7.56546C4.67573 7.80712 4.55573 7.92712 4.42323 8.03046C4.26656 8.15212 4.09823 8.25629 3.91823 8.34212C3.76656 8.41462 3.60573 8.46796 3.28323 8.57546L2.2499 8.91962L1.91573 9.03129M1.13406 8.24962L1.02323 8.58462C0.997414 8.66238 0.993736 8.74579 1.01261 8.82552C1.03148 8.90525 1.07216 8.97816 1.13009 9.03609C1.18803 9.09403 1.26094 9.13471 1.34067 9.15358C1.4204 9.17245 1.5038 9.16877 1.58156 9.14296L1.91573 9.03129M1.13406 8.24962L1.91573 9.03129" stroke="white" stroke-width="1.5"/>
</svg>
