<svg width="17" height="18" viewBox="0 0 17 18" fill="none" xmlns="http://www.w3.org/2000/svg">
<path d="M3.83333 10.666H6.89583C7.04861 10.3466 7.22583 10.048 7.4275 9.77018C7.62917 9.4924 7.85472 9.23546 8.10417 8.99935H3.83333V10.666ZM3.83333 13.9993H6.39583C6.35417 13.7216 6.33333 13.4438 6.33333 13.166C6.33333 12.8882 6.35417 12.6105 6.39583 12.3327H3.83333V13.9993ZM2.16667 17.3327C1.70833 17.3327 1.31611 17.1696 0.99 16.8435C0.663889 16.5174 0.500556 16.1249 0.5 15.666V2.33268C0.5 1.87435 0.663333 1.48213 0.99 1.15602C1.31667 0.829905 1.70889 0.666571 2.16667 0.666016H8.83333L13.8333 5.66601V7.58268C13.5694 7.49935 13.2986 7.43685 13.0208 7.39518C12.7431 7.35351 12.4583 7.33268 12.1667 7.33268V6.49935H8V2.33268H2.16667V15.666H6.89583C7.04861 15.9855 7.22583 16.2841 7.4275 16.5618C7.62917 16.8396 7.85472 17.0966 8.10417 17.3327H2.16667ZM12.1667 8.99935C13.3194 8.99935 14.3022 9.40574 15.115 10.2185C15.9278 11.0313 16.3339 12.0138 16.3333 13.166C16.3328 14.3182 15.9264 15.301 15.1142 16.1143C14.3019 16.9277 13.3194 17.3338 12.1667 17.3327C11.0139 17.3316 10.0314 16.9252 9.21917 16.1135C8.40695 15.3018 8.00056 14.3193 8 13.166C7.99945 12.0127 8.40583 11.0302 9.21917 10.2185C10.0325 9.40685 11.015 9.00046 12.1667 8.99935ZM12.1667 15.666C12.3194 15.666 12.4481 15.6141 12.5525 15.5102C12.6569 15.4063 12.7089 15.2777 12.7083 15.1243C12.7078 14.971 12.6558 14.8427 12.5525 14.7393C12.4492 14.636 12.3206 14.5838 12.1667 14.5827C12.0128 14.5816 11.8844 14.6338 11.7817 14.7393C11.6789 14.8449 11.6267 14.9732 11.625 15.1243C11.6233 15.2755 11.6756 15.4041 11.7817 15.5102C11.8878 15.6163 12.0161 15.6682 12.1667 15.666ZM11.7917 14.0827H12.5417V13.8743C12.5417 13.7216 12.5833 13.586 12.6667 13.4677C12.75 13.3493 12.8472 13.2349 12.9583 13.1243C13.1528 12.9577 13.3056 12.798 13.4167 12.6452C13.5278 12.4924 13.5833 12.2771 13.5833 11.9993C13.5833 11.5966 13.4514 11.2738 13.1875 11.031C12.9236 10.7882 12.5833 10.6666 12.1667 10.666C11.8472 10.666 11.5592 10.7599 11.3025 10.9477C11.0458 11.1355 10.8617 11.3888 10.75 11.7077L11.4167 11.9993C11.4583 11.8327 11.5453 11.6868 11.6775 11.5618C11.8097 11.4368 11.9728 11.3743 12.1667 11.3743C12.375 11.3743 12.5383 11.4266 12.6567 11.531C12.775 11.6355 12.8339 11.7916 12.8333 11.9993C12.8333 12.1521 12.7917 12.2807 12.7083 12.3852C12.625 12.4896 12.5278 12.5971 12.4167 12.7077C12.3333 12.791 12.2467 12.8743 12.1567 12.9577C12.0667 13.041 11.9867 13.1382 11.9167 13.2493C11.875 13.3327 11.8439 13.416 11.8233 13.4993C11.8028 13.5827 11.7922 13.6799 11.7917 13.791V14.0827Z" fill="white"/>
</svg>
