<svg width="14" height="16" viewBox="0 0 14 16" fill="none" xmlns="http://www.w3.org/2000/svg">
<path d="M1.16659 1.33333V6.63833V6.59V14.6667V1.33333ZM3.24992 9.25H5.99159C6.08047 9.09056 6.17492 8.94417 6.27492 8.81083C6.37492 8.6775 6.48047 8.54611 6.59159 8.41667H3.24992V9.25ZM3.24992 12.5833H5.31575C5.2952 12.4444 5.28242 12.3056 5.27742 12.1667C5.27242 12.0278 5.27464 11.8889 5.28409 11.75H3.24992V12.5833ZM1.67992 15.5C1.29603 15.5 0.975752 15.3717 0.719085 15.115C0.462418 14.8583 0.333808 14.5381 0.333252 14.1542V1.84583C0.333252 1.4625 0.461863 1.1425 0.719085 0.885833C0.976307 0.629167 1.29659 0.500556 1.67992 0.5H8.24992L11.9999 4.25V6.775C11.8644 6.735 11.7299 6.70472 11.5966 6.68417C11.4627 6.66417 11.3194 6.64889 11.1666 6.63833V4.66667H7.83325V1.33333H1.67992C1.55159 1.33333 1.43381 1.38667 1.32659 1.49333C1.21936 1.6 1.16603 1.7175 1.16659 1.84583V14.1542C1.16659 14.2819 1.21992 14.3994 1.32659 14.5067C1.43325 14.6139 1.55075 14.6672 1.67909 14.6667H6.03992C6.12881 14.8261 6.22575 14.9725 6.33075 15.1058C6.43631 15.2392 6.54992 15.3706 6.67159 15.5H1.67992ZM10.5899 8.57667C11.5177 8.57667 12.3052 8.90028 12.9524 9.5475C13.5996 10.1947 13.9233 10.9822 13.9233 11.91C13.9233 12.8389 13.5996 13.6267 12.9524 14.2733C12.3058 14.92 11.5183 15.2433 10.5899 15.2433C9.66159 15.2433 8.87381 14.92 8.22659 14.2733C7.57936 13.6267 7.25603 12.8389 7.25659 11.91C7.25659 10.9822 7.57992 10.1947 8.22659 9.5475C8.87381 8.90028 9.66159 8.57667 10.5899 8.57667ZM10.5899 14.2825C10.7105 14.2825 10.8149 14.2381 10.9033 14.1492C10.991 14.0614 11.0349 13.9572 11.0349 13.8367C11.0349 13.7156 10.991 13.6111 10.9033 13.5233C10.8149 13.435 10.7105 13.3908 10.5899 13.3908C10.4694 13.3908 10.3649 13.435 10.2766 13.5233C10.1883 13.6117 10.1441 13.7161 10.1441 13.8367C10.1441 13.9572 10.1883 14.0617 10.2766 14.15C10.3649 14.2383 10.4694 14.2825 10.5899 14.2825ZM10.2791 12.795H10.9008V12.6508C10.9008 12.4875 10.9424 12.3547 11.0258 12.2525C11.1091 12.1503 11.2063 12.0436 11.3174 11.9325C11.5119 11.7658 11.6646 11.5956 11.7758 11.4217C11.8869 11.2478 11.9424 11.0325 11.9424 10.7758C11.9424 10.3942 11.8185 10.0819 11.5708 9.83917C11.323 9.59639 10.996 9.47472 10.5899 9.47417C10.2916 9.47417 10.0138 9.56806 9.75659 9.75583C9.49936 9.94361 9.31548 10.1864 9.20492 10.4842L9.77575 10.7117C9.83853 10.545 9.94131 10.3992 10.0841 10.2742C10.2269 10.1492 10.3955 10.0867 10.5899 10.0867C10.8194 10.0867 10.9985 10.1442 11.1274 10.2592C11.2563 10.3736 11.3208 10.5458 11.3208 10.7758C11.3208 10.9392 11.2735 11.0756 11.1791 11.185C11.0852 11.2944 10.9827 11.4047 10.8716 11.5158C10.7883 11.5992 10.7069 11.6881 10.6274 11.7825C10.548 11.8764 10.4735 11.9681 10.4041 12.0575C10.3624 12.1303 10.331 12.2108 10.3099 12.2992C10.2894 12.3881 10.2791 12.4775 10.2791 12.5675V12.795Z" fill="white"/>
</svg>
